<svg width="22" height="22" viewBox="0 0 22 22" fill="none" xmlns="http://www.w3.org/2000/svg">
<path fill-rule="evenodd" clip-rule="evenodd" d="M11.6879 2.52051C11.6879 2.33817 11.6154 2.1633 11.4865 2.03437C11.3576 1.90544 11.1827 1.83301 11.0004 1.83301C10.818 1.83301 10.6431 1.90544 10.5142 2.03437C10.3853 2.1633 10.3129 2.33817 10.3129 2.52051V4.12467H8.50335C8.18132 4.12453 7.86671 4.22131 7.60044 4.40242L6.04669 5.46026C6.00854 5.48609 5.9635 5.49982 5.91744 5.49967H2.15727C1.97493 5.49967 1.80007 5.57211 1.67113 5.70104C1.5422 5.82997 1.46977 6.00484 1.46977 6.18717C1.46977 6.36951 1.5422 6.54438 1.67113 6.67331C1.80007 6.80224 1.97493 6.87467 2.15727 6.87467H3.60285L0.516437 13.9147C0.458138 14.0521 0.445374 14.2045 0.480016 14.3497C0.514657 14.4948 0.594883 14.6251 0.708937 14.7213C0.78227 14.78 0.85652 14.8359 0.992187 14.9239C1.16269 15.0348 1.40652 15.1788 1.71819 15.3208C2.34152 15.6059 3.24169 15.8892 4.35452 15.8892C5.26388 15.8909 6.16298 15.6971 6.99085 15.3208C7.30252 15.1788 7.54635 15.0348 7.71685 14.9239C7.85435 14.835 7.92769 14.7791 8.00102 14.7195C8.11599 14.6243 8.19686 14.4943 8.23142 14.3491C8.26598 14.2039 8.25236 14.0514 8.1926 13.9147L5.10527 6.87467H5.91744C6.23919 6.87467 6.5536 6.77751 6.81944 6.59692L8.3741 5.53909C8.41199 5.51344 8.45668 5.49971 8.50244 5.49967H10.3129V18.7913H6.19977C6.01743 18.7913 5.84257 18.8638 5.71363 18.9927C5.5847 19.1216 5.51227 19.2965 5.51227 19.4788C5.51227 19.6612 5.5847 19.836 5.71363 19.965C5.84257 20.0939 6.01743 20.1663 6.19977 20.1663H15.8009C15.9833 20.1663 16.1581 20.0939 16.2871 19.965C16.416 19.836 16.4884 19.6612 16.4884 19.4788C16.4884 19.2965 16.416 19.1216 16.2871 18.9927C16.1581 18.8638 15.9833 18.7913 15.8009 18.7913H11.6879V5.49967H13.4974C13.5432 5.49967 13.589 5.51342 13.6257 5.53909L15.1813 6.59692C15.4471 6.77751 15.7615 6.87467 16.0833 6.87467H16.8954L13.8081 13.9147C13.7464 14.0554 13.7336 14.2128 13.7718 14.3617C13.81 14.5106 13.897 14.6424 14.0189 14.736C14.0299 14.7443 14.0189 14.736 14.0208 14.736C14.1117 14.8045 14.2066 14.8675 14.3049 14.9248C14.4745 15.0275 14.7174 15.1595 15.0291 15.2915C15.858 15.638 16.7478 15.815 17.6462 15.8122C18.5449 15.8148 19.4351 15.6375 20.2642 15.2906C20.574 15.1595 20.8179 15.0275 20.9884 14.9248C21.0864 14.867 21.1812 14.8039 21.2725 14.736C21.3944 14.6424 21.4814 14.5106 21.5196 14.3617C21.5579 14.2128 21.5451 14.0554 21.4834 13.9147L18.3979 6.87467H19.8444C20.0267 6.87467 20.2016 6.80224 20.3305 6.67331C20.4594 6.54438 20.5319 6.36951 20.5319 6.18717C20.5319 6.00484 20.4594 5.82997 20.3305 5.70104C20.2016 5.57211 20.0267 5.49967 19.8444 5.49967H16.0842C16.0384 5.49964 15.9937 5.48591 15.9559 5.46026L14.4003 4.40242C14.1343 4.22149 13.82 4.12472 13.4983 4.12467H11.6879V2.52051ZM2.0106 13.9312C2.73211 14.3151 3.53722 14.515 4.35452 14.5133C5.17182 14.515 5.97693 14.3151 6.69844 13.9312L4.35452 8.58701L2.0106 13.9312ZM15.3114 13.9092C15.3866 13.9458 15.4709 13.9853 15.5635 14.0247C16.0494 14.2291 16.7598 14.4372 17.6462 14.4372C18.4543 14.4395 19.2525 14.259 19.9809 13.9092L17.6462 8.58609L15.3114 13.9092Z" fill="#143F6B"/>
</svg>
