<svg width="24" height="24" viewBox="0 0 24 24" fill="none" xmlns="http://www.w3.org/2000/svg">
<path d="M20.25 3.75H3.75C3.35218 3.75 2.97064 3.90804 2.68934 4.18934C2.40804 4.47064 2.25 4.85218 2.25 5.25V18.75C2.25 19.1478 2.40804 19.5294 2.68934 19.8107C2.97064 20.092 3.35218 20.25 3.75 20.25H20.25C20.6478 20.25 21.0294 20.092 21.3107 19.8107C21.592 19.5294 21.75 19.1478 21.75 18.75V5.25C21.75 4.85218 21.592 4.47064 21.3107 4.18934C21.0294 3.90804 20.6478 3.75 20.25 3.75ZM18.75 16.5C18.9489 16.5 19.1397 16.579 19.2803 16.7197C19.421 16.8603 19.5 17.0511 19.5 17.25C19.5 17.4489 19.421 17.6397 19.2803 17.7803C19.1397 17.921 18.9489 18 18.75 18H5.25C5.05109 18 4.86032 17.921 4.71967 17.7803C4.57902 17.6397 4.5 17.4489 4.5 17.25V6.75C4.5 6.55109 4.57902 6.36032 4.71967 6.21967C4.86032 6.07902 5.05109 6 5.25 6C5.44891 6 5.63968 6.07902 5.78033 6.21967C5.92098 6.36032 6 6.55109 6 6.75V12.6488L9.27 9.92344C9.39426 9.81989 9.54866 9.75929 9.71018 9.75067C9.8717 9.74205 10.0317 9.78588 10.1663 9.87562L14.1975 12.5653L18.2672 9.17344C18.4201 9.04613 18.6173 8.98479 18.8155 9.0029C19.0136 9.02101 19.1964 9.11709 19.3237 9.27C19.4511 9.42291 19.5124 9.62014 19.4943 9.81828C19.4762 10.0164 19.3801 10.1993 19.2272 10.3266L14.7272 14.0766C14.6029 14.1801 14.4485 14.2407 14.287 14.2493C14.1255 14.2579 13.9655 14.2141 13.8309 14.1244L9.79969 11.4347L6 14.6016V16.5H18.75Z" fill="white"/>
</svg>
