<svg width="24" height="24" viewBox="0 0 24 24" fill="none" xmlns="http://www.w3.org/2000/svg">
<path d="M10.9444 21C10.6769 21 10.4527 20.9093 10.272 20.728C10.0907 20.5473 10 20.3231 10 20.0556C10 19.788 10.0907 19.5638 10.272 19.3831C10.4527 19.2018 10.6769 19.1111 10.9444 19.1111H17.5556V12.4056C17.5556 11.4926 17.3824 10.6347 17.0361 9.83194C16.6898 9.02917 16.2176 8.3287 15.6194 7.73056C15.0213 7.13241 14.3208 6.66018 13.5181 6.31389C12.7153 5.96759 11.8574 5.79444 10.9444 5.79444C10.0315 5.79444 9.17361 5.96759 8.37083 6.31389C7.56806 6.66018 6.86759 7.13241 6.26944 7.73056C5.6713 8.3287 5.19907 9.02917 4.85278 9.83194C4.50648 10.6347 4.33333 11.4926 4.33333 12.4056V17.2222C4.33333 17.4898 4.24298 17.714 4.06228 17.8947C3.88094 18.076 3.65648 18.1667 3.38889 18.1667C2.86944 18.1667 2.42493 17.9819 2.05533 17.6123C1.68511 17.2421 1.5 16.7972 1.5 16.2778V14.3889C1.5 14.0269 1.58657 13.7079 1.75972 13.4322C1.93287 13.157 2.16111 12.9329 2.44444 12.7597L2.51528 11.5083C2.65694 10.3593 2.98372 9.32037 3.49561 8.39167C4.00687 7.46296 4.64437 6.67593 5.40811 6.03056C6.17122 5.38519 7.02909 4.88526 7.98172 4.53078C8.93372 4.17693 9.9213 4 10.9444 4C11.9833 4 12.9791 4.17693 13.9317 4.53078C14.8837 4.88526 15.7375 5.38896 16.4931 6.04189C17.2486 6.69544 17.8823 7.48248 18.3942 8.403C18.9055 9.32415 19.2319 10.3514 19.3736 11.4847L19.4444 12.7125C19.7278 12.8542 19.956 13.0626 20.1292 13.3377C20.3023 13.6135 20.3889 13.9167 20.3889 14.2472V16.4194C20.3889 16.7657 20.3023 17.0727 20.1292 17.3403C19.956 17.6079 19.7278 17.8125 19.4444 17.9542V19.1111C19.4444 19.6306 19.2596 20.0754 18.8901 20.4456C18.5198 20.8152 18.075 21 17.5556 21H10.9444ZM8.11111 14.3889C7.84352 14.3889 7.61937 14.2982 7.43867 14.1169C7.25733 13.9362 7.16667 13.712 7.16667 13.4444C7.16667 13.1769 7.25733 12.9524 7.43867 12.7711C7.61937 12.5904 7.84352 12.5 8.11111 12.5C8.3787 12.5 8.60317 12.5904 8.7845 12.7711C8.9652 12.9524 9.05556 13.1769 9.05556 13.4444C9.05556 13.712 8.9652 13.9362 8.7845 14.1169C8.60317 14.2982 8.3787 14.3889 8.11111 14.3889ZM13.7778 14.3889C13.5102 14.3889 13.286 14.2982 13.1053 14.1169C12.924 13.9362 12.8333 13.712 12.8333 13.4444C12.8333 13.1769 12.924 12.9524 13.1053 12.7711C13.286 12.5904 13.5102 12.5 13.7778 12.5C14.0454 12.5 14.2698 12.5904 14.4512 12.7711C14.6319 12.9524 14.7222 13.1769 14.7222 13.4444C14.7222 13.712 14.6319 13.9362 14.4512 14.1169C14.2698 14.2982 14.0454 14.3889 13.7778 14.3889ZM5.30139 12.925C5.23843 11.9963 5.36844 11.1542 5.69144 10.3986C6.01381 9.64305 6.44637 9.00146 6.98911 8.47383C7.53248 7.94683 8.15833 7.54167 8.86667 7.25833C9.575 6.975 10.2833 6.83333 10.9917 6.83333C12.4241 6.83333 13.6638 7.28604 14.7109 8.19144C15.7573 9.09622 16.3907 10.2255 16.6111 11.5792C15.1315 11.5634 13.7935 11.1658 12.5972 10.3863C11.4009 9.60748 10.4958 8.5963 9.88194 7.35278C9.63009 8.62778 9.099 9.75702 8.28867 10.7405C7.4777 11.7246 6.48194 12.4528 5.30139 12.925Z" fill="white"/>
</svg>
