<svg width="24" height="24" viewBox="0 0 24 24" fill="none" xmlns="http://www.w3.org/2000/svg">
<path fill-rule="evenodd" clip-rule="evenodd" d="M1.00002 4.49902C1.00002 3.39445 1.89545 2.49902 3.00002 2.49902H13.25V3.49902H3.00002C2.44773 3.49902 2.00002 3.94674 2.00002 4.49902C2.00002 5.05132 2.44773 5.49902 3.00002 5.49902H13.25V6.49902H3.00002C1.89545 6.49902 1.00002 5.60357 1.00002 4.49902ZM21 3.49902H18.75V2.49902H21C22.1046 2.49902 23 3.39445 23 4.49902C23 5.60357 22.1046 6.49902 21 6.49902H18.75V5.49902H21C21.5523 5.49902 22 5.05132 22 4.49902C22 3.94674 21.5523 3.49902 21 3.49902Z" fill="white"/>
<path fill-rule="evenodd" clip-rule="evenodd" d="M23 11.999C23 10.8945 22.1046 9.99902 21 9.99902H10.75V10.999H21C21.5523 10.999 22 11.4467 22 11.999C22 12.5513 21.5523 12.999 21 12.999H10.75V13.999H21C22.1046 13.999 23 13.1036 23 11.999ZM3.00002 10.999H5.25002V9.99902H3.00002C1.89545 9.99902 1.00002 10.8945 1.00002 11.999C1.00002 13.1036 1.89545 13.999 3.00002 13.999H5.25002V12.999H3.00002C2.44773 12.999 2.00002 12.5513 2.00002 11.999C2.00002 11.4467 2.44773 10.999 3.00002 10.999Z" fill="white"/>
<path fill-rule="evenodd" clip-rule="evenodd" d="M1.00002 19.499C1.00002 18.3945 1.89545 17.499 3.00002 17.499H13.25V18.499H3.00002C2.44773 18.499 2.00002 18.9467 2.00002 19.499C2.00002 20.0513 2.44773 20.499 3.00002 20.499H13.25V21.499H3.00002C1.89545 21.499 1.00002 20.6036 1.00002 19.499ZM21 18.499H18.75V17.499H21C22.1046 17.499 23 18.3945 23 19.499C23 20.6036 22.1046 21.499 21 21.499H18.75V20.499H21C21.5523 20.499 22 20.0513 22 19.499C22 18.9467 21.5523 18.499 21 18.499Z" fill="white"/>
<path fill-rule="evenodd" clip-rule="evenodd" d="M16 2.00098C14.6193 2.00098 13.5 3.12027 13.5 4.50098C13.5 5.88168 14.6193 7.00098 16 7.00098C17.3807 7.00098 18.5 5.88168 18.5 4.50098C18.5 3.12027 17.3807 2.00098 16 2.00098ZM12.5 4.50098C12.5 2.56798 14.067 1.00098 16 1.00098C17.933 1.00098 19.5 2.56798 19.5 4.50098C19.5 6.43398 17.933 8.00098 16 8.00098C14.067 8.00098 12.5 6.43398 12.5 4.50098Z" fill="white"/>
<path fill-rule="evenodd" clip-rule="evenodd" d="M8.00011 9.5C9.38081 9.5 10.5001 10.6193 10.5001 12C10.5001 13.3807 9.38081 14.5 8.00011 14.5C6.61941 14.5 5.50011 13.3807 5.50011 12C5.50011 10.6193 6.61941 9.5 8.00011 9.5ZM11.5001 12C11.5001 10.067 9.93311 8.5 8.00011 8.5C6.06711 8.5 4.50011 10.067 4.50011 12C4.50011 13.933 6.06711 15.5 8.00011 15.5C9.93311 15.5 11.5001 13.933 11.5001 12Z" fill="white"/>
<path fill-rule="evenodd" clip-rule="evenodd" d="M16 17C14.6193 17 13.5 18.1193 13.5 19.5C13.5 20.8807 14.6193 22 16 22C17.3807 22 18.5 20.8807 18.5 19.5C18.5 18.1193 17.3807 17 16 17ZM12.5 19.5C12.5 17.567 14.067 16 16 16C17.933 16 19.5 17.567 19.5 19.5C19.5 21.433 17.933 23 16 23C14.067 23 12.5 21.433 12.5 19.5Z" fill="white"/>
</svg>
