<svg width="32" height="32" viewBox="0 0 32 32" fill="none" xmlns="http://www.w3.org/2000/svg">
<rect width="32" height="32" rx="16" fill="#FFF4E7"/>
<path d="M20.4016 14.2H22C21.7 11.8 20.2 10.3 18.4 10M11.5984 17.8H10C10.3 20.2 11.8 21.7 13.6 22M13 15.4H13.375C14.4286 15.4 14.9548 15.4 15.3334 15.1474C15.4973 15.0379 15.6379 14.8973 15.7474 14.7334C16 14.3554 16 13.828 16 12.775C16 12.1432 16 11.827 15.8482 11.6002C15.7825 11.5019 15.6981 11.4175 15.5998 11.3518C15.373 11.2 15.0568 11.2 14.425 11.2H13.4284C13.342 11.2 13.2982 11.2 13.2586 11.194C13.185 11.1836 13.1144 11.1582 13.0511 11.1193C12.9878 11.0803 12.9332 11.0288 12.8908 10.9678C12.8604 10.9206 12.8333 10.8712 12.8098 10.8202C12.6526 10.5052 12.5086 10.1884 12.16 10.0576C12.007 10 11.8324 10 11.4832 10C10.9384 10 10.666 10 10.4614 10.114C10.3156 10.1953 10.1953 10.3156 10.114 10.4614C10 10.6654 10 10.9384 10 11.4832V12.4C10 13.8142 10 14.5216 10.4392 14.9608C10.8784 15.4 11.5858 15.4 13 15.4ZM19 22H18.625C17.5714 22 17.0452 22 16.6666 21.7474C16.5027 21.6379 16.3621 21.4973 16.2526 21.3334C16 20.9554 16 20.428 16 19.375C16 18.7432 16 18.427 16.1518 18.2002C16.2175 18.1019 16.3019 18.0175 16.4002 17.9518C16.627 17.8 16.9432 17.8 17.575 17.8H18.5716C18.658 17.8 18.7018 17.8 18.7414 17.794C18.815 17.7836 18.8856 17.7582 18.9489 17.7193C19.0122 17.6803 19.0668 17.6288 19.1092 17.5678C19.1396 17.5206 19.1667 17.4712 19.1902 17.4202C19.3474 17.1052 19.4914 16.7884 19.84 16.657C19.993 16.6 20.1676 16.6 20.5168 16.6C21.0616 16.6 21.334 16.6 21.5386 16.714C21.6844 16.7956 21.8044 16.9156 21.886 17.0614C22 17.2654 22 17.5384 22 18.0832V19C22 20.4142 22 21.121 21.5608 21.5608C21.121 22 20.4142 22 19 22Z" stroke="#894F0E" stroke-width="1.5" stroke-linecap="round" stroke-linejoin="round"/>
</svg>
