<svg width="22" height="22" viewBox="0 0 22 22" fill="none" xmlns="http://www.w3.org/2000/svg">
<path fill-rule="evenodd" clip-rule="evenodd" d="M9.17323 3.16021C9.45309 3.41677 9.47206 3.85167 9.21549 4.13156L5.22986 8.4795H18.3337C18.7133 8.4795 19.0212 8.7873 19.0212 9.167C19.0212 9.54668 18.7133 9.8545 18.3337 9.8545H3.66701C3.39437 9.8545 3.14749 9.69335 3.0377 9.44383C2.92792 9.19431 2.97598 8.90342 3.16022 8.70244L8.20188 3.20244C8.45845 2.92254 8.89334 2.90363 9.17323 3.16021Z" fill="#143F6B"/>
<path fill-rule="evenodd" clip-rule="evenodd" d="M18.9629 12.5562C18.8532 12.3067 18.6063 12.1455 18.3337 12.1455H3.66699C3.2873 12.1455 2.97949 12.4533 2.97949 12.833C2.97949 13.2127 3.2873 13.5205 3.66699 13.5205H16.7708L12.7852 17.8684C12.5287 18.1483 12.5476 18.5833 12.8274 18.8398C13.1074 19.0964 13.5422 19.0774 13.7988 18.7976L18.8405 13.2976C19.0247 13.0966 19.0728 12.8058 18.9629 12.5562Z" fill="#143F6B"/>
</svg>
