<svg width="24" height="24" viewBox="0 0 24 24" fill="none" xmlns="http://www.w3.org/2000/svg">
<path fill-rule="evenodd" clip-rule="evenodd" d="M17.2499 21.75C19.3197 21.75 20.9998 20.0697 20.9998 18V16.5C20.9998 14.4303 19.3197 12.75 17.2499 12.75H8.99989C6.93008 12.75 5.25 14.4303 5.25 16.5V18C5.25 20.0697 6.93008 21.75 8.99989 21.75H14.25C14.6639 21.75 14.9999 21.4141 14.9999 21C14.9999 20.5859 14.6639 20.25 14.25 20.25H8.99989C7.758 20.25 6.74982 19.2419 6.74982 18V16.5C6.74982 15.2581 7.758 14.25 8.99989 14.25H17.2499C18.4918 14.25 19.5 15.2581 19.5 16.5V18C19.5 19.2419 18.4918 20.25 17.2499 20.25C16.836 20.25 16.5 20.5859 16.5 21C16.5 21.4141 16.836 21.75 17.2499 21.75Z" fill="#143F6B"/>
<path fill-rule="evenodd" clip-rule="evenodd" d="M9.72803 2.25C7.24478 2.25 5.22803 4.26675 5.22803 6.75C5.22803 9.23325 7.24478 11.25 9.72803 11.25C12.2113 11.25 14.228 9.23325 14.228 6.75C14.228 4.26675 12.2113 2.25 9.72803 2.25ZM9.72803 3.75C11.384 3.75 12.728 5.094 12.728 6.75C12.728 8.406 11.384 9.75 9.72803 9.75C8.07203 9.75 6.72803 8.406 6.72803 6.75C6.72803 5.094 8.07203 3.75 9.72803 3.75Z" fill="#143F6B"/>
<path fill-rule="evenodd" clip-rule="evenodd" d="M7.16325 10.4312C5.57325 11.3342 4.5 13.0419 4.5 14.9994C4.5 15.4134 4.164 15.7494 3.75 15.7494C3.336 15.7494 3 15.4134 3 14.9994C3 12.2777 4.61475 9.92942 6.9375 8.86217C7.209 8.73767 7.52851 8.78642 7.75051 8.98517C8.28151 9.46067 8.982 9.74942 9.75 9.74942C10.518 9.74942 11.2185 9.46067 11.7495 8.98517C11.9715 8.78642 12.291 8.73767 12.5625 8.86217C14.388 9.70142 15.7763 11.3312 16.287 13.3119C16.3905 13.7132 16.149 14.1227 15.7478 14.2254C15.3473 14.3289 14.9377 14.0874 14.8342 13.6869C14.4757 12.2942 13.5585 11.1249 12.3368 10.4312C11.6048 10.9464 10.713 11.2494 9.75 11.2494C8.787 11.2494 7.89525 10.9464 7.16325 10.4312Z" fill="#143F6B"/>
<path d="M9.75 18C10.1642 18 10.5 17.6642 10.5 17.25C10.5 16.8358 10.1642 16.5 9.75 16.5C9.33579 16.5 9 16.8358 9 17.25C9 17.6642 9.33579 18 9.75 18Z" fill="#143F6B"/>
<path d="M16.5 18C16.9142 18 17.25 17.6642 17.25 17.25C17.25 16.8358 16.9142 16.5 16.5 16.5C16.0858 16.5 15.75 16.8358 15.75 17.25C15.75 17.6642 16.0858 18 16.5 18Z" fill="#143F6B"/>
<path d="M12 18C12.4142 18 12.75 17.6642 12.75 17.25C12.75 16.8358 12.4142 16.5 12 16.5C11.5858 16.5 11.25 16.8358 11.25 17.25C11.25 17.6642 11.5858 18 12 18Z" fill="#143F6B"/>
<path d="M14.25 18C14.6642 18 15 17.6642 15 17.25C15 16.8358 14.6642 16.5 14.25 16.5C13.8358 16.5 13.5 16.8358 13.5 17.25C13.5 17.6642 13.8358 18 14.25 18Z" fill="#143F6B"/>
</svg>
