<svg width="22" height="22" viewBox="0 0 22 22" fill="none" xmlns="http://www.w3.org/2000/svg">
<path d="M6.4165 7.44307C6.84864 7.41667 7.38138 7.41667 8.0665 7.41667H13.9332C14.6183 7.41667 15.1511 7.41667 15.5832 7.44307M6.4165 7.44307C5.87721 7.47598 5.4946 7.55004 5.16803 7.71642C4.65058 7.98005 4.22989 8.40071 3.96624 8.91817C3.6665 9.50648 3.6665 10.2765 3.6665 11.8167V13.1C3.6665 14.6402 3.6665 15.4102 3.96624 15.9985C4.22989 16.516 4.65058 16.9366 5.16803 17.2003C5.75628 17.5 6.52636 17.5 8.0665 17.5H13.9332C15.4734 17.5 16.2434 17.5 16.8317 17.2003C17.3491 16.9366 17.7698 16.516 18.0334 15.9985C18.3332 15.4102 18.3332 14.6402 18.3332 13.1V11.8167C18.3332 10.2765 18.3332 9.50648 18.0334 8.91817C17.7698 8.40071 17.3491 7.98005 16.8317 7.71642C16.5051 7.55004 16.1224 7.47598 15.5832 7.44307M6.4165 7.44307V5.58333C6.4165 3.05203 8.46854 1 10.9998 1C13.5311 1 15.5832 3.05203 15.5832 5.58333V7.44307" stroke="#143F6B" stroke-width="1.5" stroke-linecap="round" stroke-linejoin="round"/>
</svg>
