<svg width="25" height="24" viewBox="0 0 25 24" fill="none" xmlns="http://www.w3.org/2000/svg">
<path d="M16.1404 2H8.14043C4.14043 2 2.14043 4 2.14043 8V21C2.14043 21.55 2.59043 22 3.14043 22H16.1404C20.1404 22 22.1404 20 22.1404 16V8C22.1404 4 20.1404 2 16.1404 2Z" stroke="white" stroke-width="1.5" stroke-linecap="round" stroke-linejoin="round"/>
<path d="M13.0504 7.84015L7.86043 13.0302C7.66043 13.2302 7.47044 13.6202 7.43044 13.9002L7.15044 15.8802C7.05044 16.6002 7.55043 17.1002 8.27043 17.0002L10.2504 16.7202C10.5304 16.6802 10.9204 16.4902 11.1204 16.2902L16.3104 11.1002C17.2004 10.2102 17.6304 9.17015 16.3104 7.85015C14.9904 6.52015 13.9504 6.94015 13.0504 7.84015Z" stroke="white" stroke-width="1.5" stroke-miterlimit="10" stroke-linecap="round" stroke-linejoin="round"/>
<path d="M12.3104 8.58008C12.7504 10.1501 13.9804 11.3901 15.5604 11.8301" stroke="white" stroke-width="1.5" stroke-miterlimit="10" stroke-linecap="round" stroke-linejoin="round"/>
</svg>
