<svg width="32" height="32" viewBox="0 0 32 32" fill="#00000" xmlns="http://www.w3.org/2000/svg">
<path d="M16.0002 21.3334C16.5276 21.3334 17.0432 21.4898 17.4817 21.7828C17.9202 22.0758 18.262 22.4923 18.4638 22.9796C18.6657 23.4668 18.7185 24.003 18.6156 24.5203C18.5127 25.0376 18.2587 25.5127 17.8858 25.8857C17.5128 26.2586 17.0377 26.5126 16.5204 26.6155C16.0031 26.7184 15.4669 26.6656 14.9797 26.4637C14.4924 26.2619 14.0759 25.9201 13.7829 25.4816C13.4899 25.043 13.3335 24.5275 13.3335 24C13.3335 23.2928 13.6144 22.6145 14.1145 22.1144C14.6146 21.6143 15.2929 21.3334 16.0002 21.3334ZM13.3335 8.00004C13.3335 8.52746 13.4899 9.04303 13.7829 9.48156C14.0759 9.92009 14.4924 10.2619 14.9797 10.4637C15.4669 10.6656 16.0031 10.7184 16.5204 10.6155C17.0377 10.5126 17.5128 10.2586 17.8858 9.88566C18.2587 9.51272 18.5127 9.03756 18.6156 8.52028C18.7185 8.003 18.6657 7.46682 18.4638 6.97955C18.262 6.49228 17.9202 6.07581 17.4817 5.78279C17.0432 5.48977 16.5276 5.33337 16.0002 5.33337C15.2929 5.33337 14.6146 5.61433 14.1145 6.11442C13.6144 6.61452 13.3335 7.2928 13.3335 8.00004ZM13.3335 16C13.3335 16.5275 13.4899 17.043 13.7829 17.4816C14.0759 17.9201 14.4924 18.2619 14.9797 18.4637C15.4669 18.6656 16.0031 18.7184 16.5204 18.6155C17.0377 18.5126 17.5128 18.2586 17.8858 17.8857C18.2587 17.5127 18.5127 17.0376 18.6156 16.5203C18.7185 16.003 18.6657 15.4668 18.4638 14.9796C18.262 14.4923 17.9202 14.0758 17.4817 13.7828C17.0432 13.4898 16.5276 13.3334 16.0002 13.3334C15.2929 13.3334 14.6146 13.6143 14.1145 14.1144C13.6144 14.6145 13.3335 15.2928 13.3335 16Z" fill="#143F6B"/>
</svg>
