<svg width="22" height="22" viewBox="0 0 22 22" fill="none" xmlns="http://www.w3.org/2000/svg">
<path d="M1.375 6.875V19.5938C1.375 19.6849 1.41122 19.7724 1.47568 19.8368C1.54015 19.9013 1.62758 19.9375 1.71875 19.9375H7.5625V6.875C7.5625 6.69266 7.49007 6.5178 7.36114 6.38886C7.2322 6.25993 7.05734 6.1875 6.875 6.1875H2.0625C1.88016 6.1875 1.7053 6.25993 1.57636 6.38886C1.44743 6.5178 1.375 6.69266 1.375 6.875Z" stroke="#143F6B" stroke-width="1.2" stroke-linecap="round" stroke-linejoin="round"/>
<path d="M13.75 2.0625H8.25C8.06766 2.0625 7.8928 2.13493 7.76386 2.26386C7.63493 2.3928 7.5625 2.56766 7.5625 2.75V19.9375H14.4375V2.75C14.4375 2.56766 14.3651 2.3928 14.2361 2.26386C14.1072 2.13493 13.9323 2.0625 13.75 2.0625Z" stroke="#143F6B" stroke-width="1.2" stroke-linecap="round" stroke-linejoin="round"/>
<path d="M19.9375 8.9375H15.125C14.9427 8.9375 14.7678 9.00993 14.6389 9.13886C14.5099 9.2678 14.4375 9.44266 14.4375 9.625V19.9375H20.2812C20.3724 19.9375 20.4599 19.9013 20.5243 19.8368C20.5888 19.7724 20.625 19.6849 20.625 19.5938V9.625C20.625 9.44266 20.5526 9.2678 20.4236 9.13886C20.2947 9.00993 20.1198 8.9375 19.9375 8.9375Z" stroke="#143F6B" stroke-width="1.2" stroke-linecap="round" stroke-linejoin="round"/>
</svg>
