<svg width="22" height="22" viewBox="0 0 22 22" fill="none" xmlns="http://www.w3.org/2000/svg">
<path fill-rule="evenodd" clip-rule="evenodd" d="M10.349 1.88574C9.2704 1.88574 8.39595 2.76015 8.39595 3.8388V5.79186H3.8388C2.76015 5.79186 1.88574 6.66628 1.88574 7.74493V18.1613C1.88574 19.2399 2.76015 20.1143 3.8388 20.1143H11.651C12.7297 20.1143 13.6041 19.2399 13.6041 18.1613V16.2082H18.1613C19.2399 16.2082 20.1143 15.3337 20.1143 14.2551V3.8388C20.1143 2.76015 19.2399 1.88574 18.1613 1.88574H10.349ZM12.3021 16.2082H10.349C9.2704 16.2082 8.39595 15.3337 8.39595 14.2551V7.09391H3.8388C3.47926 7.09391 3.18778 7.38538 3.18778 7.74493V18.1613C3.18778 18.5207 3.47926 18.8123 3.8388 18.8123H11.651C12.0105 18.8123 12.3021 18.5207 12.3021 18.1613V16.2082ZM9.69799 3.8388C9.69799 3.47926 9.98951 3.18778 10.349 3.18778H18.1613C18.5207 3.18778 18.8123 3.47926 18.8123 3.8388V14.2551C18.8123 14.6146 18.5207 14.9062 18.1613 14.9062H10.349C9.98951 14.9062 9.69799 14.6146 9.69799 14.2551V3.8388Z" fill="#143F6B"/>
<path fill-rule="evenodd" clip-rule="evenodd" d="M11 6.44282C11 6.00888 11.2955 5.6571 11.66 5.6571H16.94C17.3045 5.6571 17.6 6.00888 17.6 6.44282C17.6 6.87675 17.3045 7.22853 16.94 7.22853H11.66C11.2955 7.22853 11 6.87675 11 6.44282Z" fill="#143F6B"/>
<path fill-rule="evenodd" clip-rule="evenodd" d="M11 9.11392C11 8.76683 11.2815 8.48535 11.6286 8.48535H14.1429C14.49 8.48535 14.7714 8.76683 14.7714 9.11392C14.7714 9.46102 14.49 9.74249 14.1429 9.74249H11.6286C11.2815 9.74249 11 9.46102 11 9.11392Z" fill="#143F6B"/>
</svg>
